{"title":"Casino Jack *2010* [DVDRip.XviD-miguel] [ENG]","uid":6385733,"size":737578018,"categoryP":"video","categoryS":"movies","magnet":"?xt=urn:btih:1d1b78b18df50320d788f3117fff11eb36f53641&amp;dn=Casino+Jack+%2A2010%2A+%5BDVDRip.XviD-miguel%5D+%5BENG%5D&amp;tr=udp%3A%2F%2Ftracker.openbittorrent.com%3A80&amp;tr=udp%3A%2F%2Fopen.demonii.com%3A1337&amp;tr=udp%3A%2F%2Ftracker.coppersurfer.tk%3A6969&amp;tr=udp%3A%2F%2Fexodus.desync.com%3A6969","seeders":2,"leechers":0,"uploader":"miguel1983","files":-1,"time":1305197143,"description":" &lt;a href=&quot;http://imageshack.us/m/194/6607/watchcasinojackmovieonl.jpg&quot; rel=&quot;nofollow&quot; target=&quot;_NEW&quot;&gt;http://imageshack.us/m/194/6607/watchcasinojackmovieonl.jpg&lt;/a&gt;\n\nCountry.......: Canada\nGenre.........: Drama, Crime, Comedy\nDate release..: 16.09.2010 [World]\nDirector......: George Hickenlooper\nWriters.......: Norman Snider\nDuration......: 103 min.\nMore..........: http://www.imdb.com/title/tt1194417\nTrailer.......: http://www.imdb.com/video/imdb/vi402888985\nTrailer.......:\n\nPilot :\nA hot shot Washington DC lobbyist and his protÃƒÂ©gÃƒÂ© go down hard as their schemes to peddle influence lead to corruption and murder. \n\nCats :\nKevin Spacey   \t ...  \tJack Abramoff\nRuth Marshall \t... \tSusan Schmidt\nGraham Greene \t... \tBernie Sprague\nHannah Endicott Douglas \t... \tSarah Abramoff\nBarry Pepper \t... \tMichael Scanlon\nJohn Robinson \t... \tFederal Agent Patterson\nJason Weinberg \t... \tSnake\nSpencer Garrett \t... \tTom DeLay\nYok Come Ho \t... \tAsian Factory Worker\nAnna Hardwick \t... \tLobbyist #2\nJohn David Whalen \t... \tKevin Ring\nMatt Gordon \t... \tBill Jarrell\nJeffrey R. Smith \t... \tGrover Norquist\nChristian Campbell \t... \tRalph Reed\nEric Schweig \t... \tChief Poncho \n\nData Technical :\n!!! SAMPLE !!!\nAudio.....: English\nSubtitles.: English .srt, Polish .txt\nFormat                           : AVI\nFormat/Info                      : Audio Video Interleave\nFile size                        : 701 MiB\nDuration                         : 1h 43mn\nOverall bit rate                 : 949 Kbps\nWriting application              : Noir's Hyper HD Xvid\nWriting library                  : VirtualDub build 32839/release\nOriginal source form             : Noir's Shit\nCopyright                        : By Noir\nVideo\nID                               : 0\nFormat                           : MPEG-4 Visual\nFormat profile                   : Advanced Simple@L5\nFormat settings, BVOP            : Yes\nFormat settings, QPel            : No\nFormat settings, GMC             : No warppoints\nFormat settings, Matrix          : Default (H.263)\nMuxing mode                      : Packed bitstream\nCodec ID                         : XVID\nCodec ID/Hint                    : XviD\nDuration                         : 1h 43mn\nBit rate                         : 826 Kbps\nWidth                            : 600 pixels\nHeight                           : 320 pixels\nDisplay aspect ratio             : 1.875\nFrame rate                       : 25.000 fps\nColor space                      : YUV\nChroma subsampling               : 4:2:0\nBit depth                        : 8 bits\nScan type                        : Progressive\nBits/(Pixel*Frame)               : 0.172\nStream size                      : 610 MiB (87%)\nWriting library                  : XviD 57\nAudio\nID                               : 1\nFormat                           : MPEG Audio\nFormat version                   : Version 1\nFormat profile                   : Layer 3\nMode                             : Joint stereo\nMode extension                   : MS Stereo\nCodec ID                         : 55\nCodec ID/Hint                    : MP3\nDuration                         : 1h 43mn\nBit rate mode                    : Variable\nBit rate                         : 112 Kbps\nChannel(s)                       : 2 channels\nSampling rate                    : 44.1 KHz\nStream size                      : 81.9 MiB (12%)\nAlignment                        : Aligned on interleaves\nInterleave, duration             : 26 ms (0.65 video frame)\nInterleave, preload duration     : 459 ms\nWriting library                  : LAME3.98.4\n\nScreen : &lt;a href=&quot;\nhttp://imageshack.us/m/834/7682/casinojack2010s1.jpg&quot; rel=&quot;nofollow&quot; target=&quot;_NEW&quot;&gt;\nhttp://imageshack.us/m/834/7682/casinojack2010s1.jpg&lt;/a&gt; &lt;a href=&quot;\nhttp://imageshack.us/m/840/3595/casinojack2010s2.jpg&quot; rel=&quot;nofollow&quot; target=&quot;_NEW&quot;&gt;\nhttp://imageshack.us/m/840/3595/casinojack2010s2.jpg&lt;/a&gt; &lt;a href=&quot;\nhttp://imageshack.us/m/651/1531/casinojack2010s3.jpg&quot; rel=&quot;nofollow&quot; target=&quot;_NEW&quot;&gt;\nhttp://imageshack.us/m/651/1531/casinojack2010s3.jpg&lt;/a&gt; &lt;a href=&quot;\nhttp://imageshack.us/m/859/5126/casinojack2010s4.jpg&quot; rel=&quot;nofollow&quot; target=&quot;_NEW&quot;&gt;\nhttp://imageshack.us/m/859/5126/casinojack2010s4.jpg&lt;/a&gt; &lt;a href=&quot;\nhttp://imageshack.us/m/3/9294/casinojack2010s5.jpg&quot; rel=&quot;nofollow&quot; target=&quot;_NEW&quot;&gt;\nhttp://imageshack.us/m/3/9294/casinojack2010s5.jpg&lt;/a&gt;","torrent":{"xt":"urn:btih:1d1b78b18df50320d788f3117fff11eb36f53641","amp;dn":"Casino+Jack+%2A2010%2A+%5BDVDRip.XviD-miguel%5D+%5BENG%5D","amp;tr":["udp%3A%2F%2Ftracker.openbittorrent.com%3A80","udp%3A%2F%2Fopen.demonii.com%3A1337","udp%3A%2F%2Ftracker.coppersurfer.tk%3A6969","udp%3A%2F%2Fexodus.desync.com%3A6969"],"infoHash":"1d1b78b18df50320d788f3117fff11eb36f53641","infoHashBuffer":{"type":"Buffer","data":[29,27,120,177,141,245,3,32,215,136,243,17,127,255,17,235,54,245,54,65]},"announce":[],"urlList":[]}}